<svg xmlns="http://www.w3.org/2000/svg" width="1920" height="1080" viewBox="0 0 1920 1080">
  <defs>
    <linearGradient id="bg_grad" x1="0%" y1="0%" x2="100%" y2="100%">
      <stop offset="0%" style="stop-color:#212121;stop-opacity:1" />
      <stop offset="100%" style="stop-color:#424242;stop-opacity:1" />
    </linearGradient>
  </defs>
  <rect width="1920" height="1080" fill="url(#bg_grad)" />
  <!-- Industrial design elements -->
  <g opacity="0.2" stroke="#aaa" stroke-width="2">
    <line x1="0" y1="200" x2="1920" y2="200" />
    <line x1="0" y1="400" x2="1920" y2="400" />
    <line x1="0" y1="600" x2="1920" y2="600" />
    <line x1="0" y1="800" x2="1920" y2="800" />
    <line x1="0" y1="1000" x2="1920" y2="1000" />
    <line x1="300" y1="0" x2="300" y2="1080" />
    <line x1="600" y1="0" x2="600" y2="1080" />
    <line x1="900" y1="0" x2="900" y2="1080" />
    <line x1="1200" y1="0" x2="1200" y2="1080" />
    <line x1="1500" y1="0" x2="1500" y2="1080" />
    <line x1="1800" y1="0" x2="1800" y2="1080" />
  </g>
  <!-- Factory silhouettes -->
  <g fill="#000">
    <polygon points="1000,1080 1200,1080 1200,800 1150,750 1100,800 1050,750 1000,800" opacity="0.5" />
    <polygon points="1300,1080 1500,1080 1500,600 1450,550 1400,600 1350,550 1300,600" opacity="0.5" />
    <polygon points="700,1080 900,1080 900,700 850,650 800,700 750,650 700,700" opacity="0.5" />
    <rect x="1600" y="700" width="200" height="380" opacity="0.5" />
    <rect x="1650" y="600" width="100" height="100" opacity="0.5" />
    <rect x="400" y="800" width="200" height="280" opacity="0.5" />
    <rect x="450" y="700" width="100" height="100" opacity="0.5" />
  </g>
</svg>
